<svg xmlns="http://www.w3.org/2000/svg" width="1200" height="630" viewBox="0 0 1200 630" role="img" aria-labelledby="title desc">
  <title id="title">Flowmatic | From field signal to verified completion</title>
  <desc id="desc">Flowmatic official global social preview using the approved corporate identity.</desc>
  <rect width="1200" height="630" fill="#FFFFFF"/>
  <rect x="32" y="32" width="1136" height="566" fill="none" stroke="#101820" stroke-width="12"/>
  <rect x="890" y="32" width="278" height="164" fill="#1264D8" stroke="#101820" stroke-width="12"/>
  <rect x="890" y="196" width="278" height="196" fill="#FFB000" stroke="#101820" stroke-width="12"/>
  <rect x="890" y="392" width="278" height="206" fill="#F0442B" stroke="#101820" stroke-width="12"/>
  <svg x="62" y="52" width="700" height="184" viewBox="0 0 1600 420" preserveAspectRatio="xMidYMid meet" aria-hidden="true" focusable="false">
    <defs>
        <linearGradient id="og-ci-amber" x1="0" y1="0" x2="1" y2="1">
          <stop offset="0" stop-color="#FFB000"/>
          <stop offset="1" stop-color="#FFD04A"/>
        </linearGradient>
        <linearGradient id="og-ci-blue" x1="0" y1="0" x2="1" y2="1">
          <stop offset="0" stop-color="#0B58CA"/>
          <stop offset="1" stop-color="#2B7AF0"/>
        </linearGradient>
        <linearGradient id="og-ci-red" x1="0" y1="0" x2="1" y2="1">
          <stop offset="0" stop-color="#FF3D24"/>
          <stop offset="1" stop-color="#F06435"/>
        </linearGradient>
      </defs>
      <!-- Optical correction v1.1: symbol height -10.3%, centered to the full wordmark block. -->
      <g transform="translate(26 37) scale(.92 .825)">
        <path d="M31 99 L143 30 L143 89 L75 131 L75 188 L31 214 Z" fill="url(#og-ci-amber)"/>
        <path d="M157 31 L264 98 L208 132 L157 101 Z" fill="url(#og-ci-blue)"/>
        <path d="M43 264 L84 237 L143 272 L143 326 Z" fill="url(#og-ci-red)"/>
        <path d="M157 270 L264 204 L264 260 L157 327 Z" fill="url(#og-ci-amber)"/>
        <path d="M31 239 L132 165 L168 186 L265 135" fill="none" stroke="#101820" stroke-width="8" stroke-linecap="round" stroke-linejoin="round"/>
        <circle cx="31" cy="239" r="13" fill="#101820"/>
        <circle cx="132" cy="165" r="13" fill="#101820"/>
        <circle cx="168" cy="186" r="13" fill="#101820"/>
        <circle cx="265" cy="135" r="13" fill="#101820"/>
      </g>
      <g aria-label="Flowmatic global wordmark">
        <text x="360" y="205" fill="#101820" font-family="DejaVu Sans, Arial, sans-serif" font-size="132" font-weight="800" letter-spacing="5" textLength="1120" lengthAdjust="spacingAndGlyphs">FLOWMATIC</text>
        <rect x="365" y="248" width="54" height="5" rx="2.5" fill="#00A8D2"/>
        <text x="440" y="264" fill="#00A8D2" font-family="DejaVu Sans, Arial, sans-serif" font-size="31" font-weight="600" letter-spacing="7.5">MANUFACTURING INTELLIGENCE OS</text>
      </g>
  </svg>
  <rect x="72" y="252" width="104" height="9" fill="#00A8D2"/>
  <text x="72" y="337" fill="#101820" font-family="Arial, Helvetica, sans-serif" font-size="54" font-weight="700">FROM FIELD SIGNAL</text>
  <text x="72" y="410" fill="#101820" font-family="Arial, Helvetica, sans-serif" font-size="54" font-weight="700">TO VERIFIED COMPLETION</text>
  <text x="74" y="492" fill="#101820" font-family="Arial, Helvetica, sans-serif" font-size="22" font-weight="700" letter-spacing="1">SIGNAL → CONTEXT → DECISION → ACTION → CONFIRMATION</text>
  <text x="74" y="554" fill="#101820" font-family="Arial, Helvetica, sans-serif" font-size="27" font-weight="700">flowmatic-os.com</text>
</svg>
